<?xml version="1.0" encoding="UTF-8"?><svg id="Calque_1" xmlns="http://www.w3.org/2000/svg" xmlns:xlink="http://www.w3.org/1999/xlink" viewBox="0 0 1250.77 1250.77"><defs><style>.cls-1{stroke:#e5e5e5;stroke-miterlimit:10;stroke-width:6px;}.cls-1,.cls-2{fill:none;}.cls-3{clip-path:url(#clippath);}.cls-2,.cls-4{stroke-width:0px;}.cls-4{fill:#e5e5e5;}</style><clipPath id="clippath"><circle class="cls-2" cx="625.38" cy="625.38" r="393"/></clipPath></defs><path class="cls-4" d="M111.66,542.15l-1.72,12.53-7.97-1.1,3.16-22.97,12.87,1.77c12.32,1.69,19.24,11.68,17.43,24.8-2.04,14.87-12.78,22.21-29.27,19.94l-11.89-1.63c-16.49-2.27-24.85-12.23-22.81-27.1,1.83-13.3,10.99-20.55,24.11-19.05l-1.43,10.4c-7.16-.64-12.5,3.41-13.42,10.14-1.17,8.48,3.94,13.66,14.98,15.17l11.89,1.63c11.04,1.52,17.36-2.13,18.54-10.7.99-7.2-2.75-12.23-9.95-13.22l-4.52-.62Z"/><path class="cls-4" d="M125.24,488.97l-38.49-9.58,2.5-10.06,39.08,9.73c14.07,3.5,20.35,13.71,16.92,27.49-3.43,13.78-13.76,19.85-27.83,16.35l-39.08-9.73,2.5-10.06,38.49,9.58c8.85,2.2,14.93-.85,16.81-8.41,1.88-7.56-2.06-13.1-10.91-15.31Z"/><path class="cls-4" d="M153.34,472.6l-8.4-3.08,4.38-11.96-41.48-15.2-4.38,11.96-8.4-3.08,12.34-33.69,8.4,3.08-4.38,11.96,41.48,15.2,4.38-11.96,8.4,3.08-12.34,33.69Z"/><path class="cls-4" d="M189.89,387.82l-16.97,34.37-55.66-27.48,4.55-9.22,47.37,23.38,12.42-25.15,8.29,4.09Z"/><path class="cls-4" d="M217.76,342.89l-20.53,32.37-52.43-33.25,5.51-8.68,44.61,28.29,15.02-23.69,7.81,4.95Z"/><path class="cls-4" d="M229.99,300.48l-12.26,15.42,9.95,13.68-6.48,8.15-36.69-53.61,7.44-9.36,60.5,23.63-6.93,8.72-15.55-6.64ZM212.71,308.94l9.39-11.82-25.4-10.84-.27.34,16.27,22.33Z"/><path class="cls-4" d="M264.44,254.08l-28.26-27.81,7.27-7.39,28.69,28.24c10.33,10.17,10.55,22.15.59,32.26s-21.94,10.09-32.27-.08l-28.69-28.24,7.27-7.39,28.26,27.81c6.5,6.4,13.28,6.86,18.74,1.31,5.46-5.55,4.89-12.33-1.61-18.72Z"/><path class="cls-4" d="M300.01,251.75l-6.88,5.65-39.39-47.98,8.54-7.02,32.28,21.08.5-.41-14.46-35.72,8.58-7.04,39.39,47.98-6.88,5.65-13.87-16.89-14.97-19.99-.6.49,12.2,31.67-5.72,4.69-28.69-18.13-.6.49,16.7,18.57,13.87,16.89Z"/><path class="cls-4" d="M370.14,200.54l-31.89,20.95-34.08-51.88,31.89-20.95,4.98,7.59-23.19,15.24,9.5,14.45,21.86-14.36,4.65,7.08-21.86,14.36,9.97,15.17,23.19-15.24,4.98,7.59Z"/><path class="cls-4" d="M431.14,169.53l-22.3-57.93,35.61-13.71,3.26,8.47-25.89,9.97,6.71,17.42,23.61-9.09,3.12,8.11-23.61,9.09,9.21,23.93-9.71,3.74Z"/><path class="cls-4" d="M518.39,141.46l-37.03,9.86-15.96-59.98,9.93-2.64,13.58,51.04,27.1-7.21,2.38,8.94Z"/><path class="cls-4" d="M549.41,137.43c-14.41,2.22-24.72-6.51-27.34-23.55l-1.47-9.56c-2.62-17.05,4.58-28.47,18.99-30.69,14.41-2.22,24.72,6.51,27.34,23.55l1.47,9.56c2.62,17.05-4.58,28.47-18.99,30.69ZM557.97,108.26l-1.45-9.4c-1.82-11.82-7.37-17.32-15.53-16.06s-11.8,8.17-9.98,19.99l1.45,9.4c1.82,11.82,7.37,17.32,15.53,16.06s11.8-8.17,9.98-19.99Z"/><path class="cls-4" d="M590.66,107.81l1.11,23.59-10.36.49-2.91-62,21.83-1.02c13.06-.61,21.44,6.36,22,18.3.38,8.08-3.69,14.99-10.45,17.8l13.7,24.85-11.69.55-12.28-23.07-10.96.51ZM590.27,99.65l10.05-.47c7.56-.35,11.76-4.56,11.44-11.39s-4.8-10.58-12.24-10.24l-10.27.48,1.01,21.61Z"/><path class="cls-4" d="M636.76,130.19l.52-8.93,12.71.74,2.57-44.1-12.71-.74.52-8.93,35.81,2.09-.52,8.93-12.71-.74-2.57,44.1,12.71.74-.52,8.93-35.81-2.09Z"/><path class="cls-4" d="M697.67,118.25c-.39,6,3.79,10.27,11.26,11.51,7.21,1.2,12.44-1.64,13.38-7.28.77-4.63-1.85-7.76-9.11-10.8l-5.67-2.38c-10.76-4.53-15.17-11.07-13.67-20.06,1.83-10.99,11.23-16.67,24.09-14.53,12.31,2.04,19.51,10.39,18.13,21.06l-9.76-1.62c.38-5.69-3.27-9.7-9.72-10.77-6.79-1.13-11.43,1.37-12.32,6.67-.78,4.71,1.74,7.88,8.64,10.72l5.67,2.38c11.38,4.73,15.6,10.83,14.06,20.13-1.93,11.63-11.61,17.39-25.32,15.11-13.41-2.23-20.8-10.48-19.45-21.76l9.8,1.63Z"/><path class="cls-4" d="M833.54,108.44c11.75,4.68,16.31,15.2,11.65,26.91-4.63,11.63-15.34,16.07-27.33,11.3l-10.27-4.09-7.69,19.3-9.67-3.85,22.96-57.67,20.34,8.1ZM810.8,134.48l8.27,3.29c7.79,3.1,13.42.95,16.33-6.37,2.91-7.31.31-12.75-7.48-15.85l-8.27-3.29-8.85,22.22Z"/><path class="cls-4" d="M866.77,192.83l12.64-23.93-20.01-10.57-12.64,23.93-9.05-4.78,29-54.89,9.05,4.78-12.12,22.94,20.01,10.57,12.12-22.94,9.05,4.78-29,54.89-9.05-4.78Z"/><path class="cls-4" d="M901.42,215.74c-12.09-8.15-13.75-21.55-4.11-35.86l5.41-8.03c9.64-14.31,22.68-17.81,34.78-9.66,12.09,8.15,13.75,21.55,4.11,35.86l-5.41,8.03c-9.64,14.31-22.68,17.81-34.78,9.66ZM927.51,200.11l5.31-7.88c6.68-9.92,6.34-17.72-.51-22.34s-14.21-2-20.89,7.92l-5.31,7.88c-6.68,9.92-6.34,17.72.51,22.34s14.21,2,20.89-7.92Z"/><path class="cls-4" d="M940.33,243.16l34.1-40.57-13.9-11.68,5.84-6.95,35.76,30.06-5.84,6.95-13.9-11.68-34.1,40.57-7.97-6.7Z"/><path class="cls-4" d="M982.01,283.46c-10.11-10.51-8.9-23.96,3.53-35.92l6.98-6.71c12.43-11.96,25.92-12.64,36.03-2.12,10.11,10.51,8.9,23.96-3.53,35.92l-6.98,6.71c-12.43,11.96-25.92,12.64-36.03,2.12ZM1010.8,273.68l6.85-6.59c8.62-8.29,9.93-15.99,4.2-21.94s-13.47-4.95-22.09,3.34l-6.85,6.59c-8.62,8.29-9.93,15.99-4.2,21.94s13.47,4.95,22.09-3.34Z"/><path class="cls-4" d="M1044.53,317.73l-7.75-9.99,6.35-4.93,14.21,18.32-10.26,7.96c-9.82,7.62-21.79,5.59-29.92-4.88-9.2-11.86-6.94-24.66,6.21-34.87l9.48-7.36c13.15-10.2,26.12-9.21,35.32,2.65,8.23,10.6,7.01,22.22-3.24,30.55l-6.43-8.29c5.46-4.68,6.3-11.31,2.13-16.68-5.25-6.76-12.52-6.73-21.32.1l-9.48,7.36c-8.8,6.83-10.61,13.9-5.31,20.73,4.46,5.74,10.66,6.59,16.41,2.13l3.6-2.79Z"/><path class="cls-4" d="M1062.39,344.98l-20.09,12.41-5.45-8.82,52.8-32.63,11.49,18.59c6.88,11.12,4.85,21.83-5.33,28.12-6.88,4.25-14.89,4.05-20.63-.5l-15.08,24.04-6.15-9.95,14.21-21.93-5.77-9.33ZM1069.35,340.69l5.29,8.56c3.98,6.44,9.69,8.07,15.51,4.47,5.82-3.6,6.92-9.33,3.01-15.67l-5.4-8.75-18.41,11.37Z"/><path class="cls-4" d="M1091.75,413.85l-8.51-17.76-16.65,2.97-4.5-9.39,64.24-9.56,5.17,10.78-47.7,44.08-4.81-10.05,12.77-11.08ZM1091.69,394.61l6.52,13.61,20.85-18.1-.19-.39-27.19,4.87Z"/><path class="cls-4" d="M1152.34,442.24c4.21,11.92-.7,22.28-12.59,26.48-11.8,4.17-22.19-.96-26.49-13.13l-3.68-10.42-19.59,6.92-3.47-9.81,58.52-20.68,7.29,20.64ZM1117.78,442.27l2.97,8.4c2.79,7.91,8.12,10.73,15.54,8.1,7.42-2.62,9.8-8.16,7.01-16.07l-2.97-8.4-22.55,7.97Z"/><path class="cls-4" d="M1110.69,522.8l26.33-6.23-5.21-22.02-26.33,6.23-2.36-9.96,60.4-14.29,2.36,9.96-25.24,5.97,5.21,22.02,25.24-5.97,2.36,9.96-60.4,14.29-2.36-9.96Z"/><path class="cls-4" d="M1119.97,583.64l-4.76-37.86,61.59-7.75,4.76,37.86-9.01,1.13-3.46-27.53-17.16,2.16,3.27,25.95-8.41,1.06-3.27-25.95-18.01,2.27,3.46,27.53-9,1.13Z"/><path class="cls-4" d="M625.38,29.38c80.46,0,158.52,15.76,231.99,46.83,35.31,14.94,69.37,33.42,101.24,54.95,31.56,21.32,61.24,45.81,88.21,72.78,26.97,26.97,51.46,56.65,72.78,88.21,21.53,31.86,40.01,65.92,54.95,101.24,31.08,73.47,46.83,151.52,46.83,231.99s-15.76,158.52-46.83,231.99c-14.94,35.31-33.42,69.37-54.95,101.24-21.32,31.56-45.81,61.24-72.78,88.21-26.97,26.97-56.65,51.46-88.21,72.78-31.86,21.53-65.92,40.01-101.24,54.95-73.47,31.08-151.52,46.83-231.99,46.83s-158.52-15.76-231.99-46.83c-35.31-14.94-69.37-33.42-101.24-54.95-31.56-21.32-61.24-45.81-88.21-72.78-26.97-26.97-51.46-56.65-72.78-88.21-21.53-31.86-40.01-65.92-54.95-101.24-31.08-73.47-46.83-151.52-46.83-231.99s15.76-158.52,46.83-231.99c14.94-35.31,33.42-69.37,54.95-101.24,21.32-31.56,45.81-61.24,72.78-88.21,26.97-26.97,56.65-51.46,88.21-72.78,31.86-21.53,65.92-40.01,101.24-54.95,73.47-31.08,151.52-46.83,231.99-46.83M625.38,19.38C290.7,19.38,19.38,290.7,19.38,625.38s271.32,606,606,606,606-271.32,606-606S960.07,19.38,625.38,19.38h0Z"/><path class="cls-4" d="M625.38,181.38c59.94,0,118.09,11.74,172.82,34.89,52.87,22.36,100.35,54.38,141.13,95.16s72.79,88.26,95.16,141.13c23.15,54.73,34.89,112.88,34.89,172.82s-11.74,118.09-34.89,172.82c-22.36,52.87-54.38,100.35-95.16,141.13s-88.26,72.79-141.13,95.16c-54.73,23.15-112.88,34.89-172.82,34.89s-118.09-11.74-172.82-34.89c-52.87-22.36-100.35-54.38-141.13-95.16s-72.79-88.26-95.16-141.13c-23.15-54.73-34.89-112.88-34.89-172.82s11.74-118.09,34.89-172.82c22.36-52.87,54.38-100.35,95.16-141.13s88.26-72.79,141.13-95.16c54.73-23.15,112.88-34.89,172.82-34.89M625.38,171.38c-250.74,0-454,203.26-454,454s203.26,454,454,454,454-203.26,454-454-203.26-454-454-454h0Z"/><path class="cls-4" d="M625.38,8.38c83.3,0,164.1,16.31,240.16,48.48,36.56,15.46,71.82,34.6,104.8,56.89,32.67,22.07,63.4,47.42,91.32,75.34,27.92,27.92,53.27,58.65,75.34,91.32,22.28,32.98,41.42,68.25,56.89,104.8,32.17,76.06,48.48,156.87,48.48,240.16s-16.31,164.1-48.48,240.16c-15.46,36.56-34.6,71.82-56.89,104.8-22.07,32.67-47.42,63.4-75.34,91.32-27.92,27.92-58.65,53.27-91.32,75.34-32.98,22.28-68.25,41.42-104.8,56.89-76.06,32.17-156.87,48.48-240.16,48.48s-164.1-16.31-240.16-48.48c-36.56-15.46-71.82-34.6-104.8-56.89-32.67-22.07-63.4-47.42-91.32-75.34-27.92-27.92-53.27-58.65-75.34-91.32-22.28-32.98-41.42-68.25-56.89-104.8-32.17-76.06-48.48-156.87-48.48-240.16s16.31-164.1,48.48-240.16c15.46-36.56,34.6-71.82,56.89-104.8,22.07-32.67,47.42-63.4,75.34-91.32,27.92-27.92,58.65-53.27,91.32-75.34,32.98-22.28,68.25-41.42,104.8-56.89,76.06-32.17,156.87-48.48,240.16-48.48M625.38,3.38C281.86,3.38,3.38,281.86,3.38,625.38s278.48,622,622,622,622-278.48,622-622S968.91,3.38,625.38,3.38h0Z"/><path class="cls-4" d="M1101.89,802.83l9.45-26.31,7.81,2.81,32.35,32.6-3.56,9.92-31.58-31.82-.65-.23-5.82,16.19,15.54,5.58-3.14,8.74-15.63-5.61-3,8.34-8.01-2.88,2.97-8.26-11.58-4.16,3.26-9.07,11.58,4.16Z"/><path class="cls-4" d="M1107.36,850.73l-3.08,6.35c-2.84,5.84-1.23,11.5,3.91,14,5.11,2.48,10.22.23,13.06-5.61,2.84-5.84,1.37-11.29-3.8-14.33l4.15-8.55c9.88,5.47,12.61,15.69,7.16,26.91-5.25,10.8-14.87,15.35-23.54,11.14-6.62-3.21-9.67-9.24-8.07-15.97l-.66-.32c-4.58,7.06-11.79,9.1-19.29,5.45-9.71-4.72-12.42-16.37-6.62-28.32,5.7-11.72,16.11-16.52,26.45-12.12l-4.23,8.71c-5.49-2.09-10.98.64-14.1,7.07-3.33,6.85-1.95,12.88,3.54,15.54,5.61,2.73,11.37.02,14.74-6.9l3.18-6.54,7.2,3.5Z"/><path class="cls-4" d="M1040.29,869.76l22.02,19.55-6.34,10.14-20.42-22.11,4.74-7.58Z"/><path class="cls-4" d="M1014.58,930.89c8.23-10.49,21.11-12.2,31.4-4.13,5.82,4.57,9.6,10.76,12.7,20.95.82,2.44,5.66,19.97,6.09,21.78l-7.3,9.31-7.17-26.13c-.86-3.08-1.03-3.49-1.48-4.39l-.61.5c.59,3.15-.68,7.34-3.09,10.42-6.77,8.63-18.42,9.82-27.39,2.79-9.81-7.7-11.14-20.93-3.15-31.12ZM1023.71,953.68c5.58,4.38,13.07,3.48,17.43-2.07,4.35-5.55,3.45-13.04-2.13-17.42s-13.07-3.48-17.43,2.07c-4.35,5.55-3.45,13.04,2.13,17.42Z"/><path class="cls-4" d="M995.13,956.61l6.26,6.09-12.08,12.43,30.59,29.74.51-.52,3.77-19.61,7.25,7.05-3.91,20.56-7.08,7.28-38.24-37.18-11.51,11.84-6.26-6.09,30.7-31.58Z"/><path class="cls-4" d="M957.8,994.07l5.58,6.72-13.33,11.08,27.28,32.82.56-.47,5.82-19.1,6.46,7.77-6.06,20.03-7.81,6.49-34.1-41.02-12.7,10.56-5.58-6.72,33.88-28.16Z"/><path class="cls-4" d="M928.53,1039.55c4.24,6.37,3.41,14.37-2.2,20.38l.41.61c6.31-2.24,12.68-.12,16.35,5.39,5.41,8.13,2.01,18.71-8.19,25.5-10.21,6.79-21.28,5.84-26.69-2.29-3.67-5.52-3.18-12.15,1.37-17.19l-.41-.61c-7.54,2.95-15.42.6-19.68-5.81-5.93-8.92-2.07-20.27,9.53-27.99,11.6-7.72,23.57-6.9,29.5,2.02ZM898.88,1060.37c3.53,5.3,10.27,6.03,16.57,1.84,6.3-4.19,8.23-10.7,4.7-16-3.5-5.26-10.27-6.03-16.57-1.84-6.3,4.19-8.21,10.73-4.7,16ZM916.23,1082.72c3.12,4.69,8.83,5.5,14.16,1.94,5.37-3.58,6.8-9.12,3.67-13.81-3.15-4.73-8.81-5.56-14.18-1.98-5.34,3.55-6.8,9.12-3.65,13.85Z"/><path class="cls-4" d="M882.79,1069.48c3.54,6.79,1.87,14.65-4.35,20.03l.34.65c6.52-1.56,12.63,1.23,15.69,7.1,4.52,8.66.01,18.82-10.86,24.49-10.87,5.67-21.78,3.55-26.3-5.11-3.06-5.88-1.87-12.42,3.19-16.95l-.34-.65c-7.81,2.14-15.39-1.04-18.96-7.87-4.96-9.5.09-20.38,12.45-26.83,12.36-6.45,24.17-4.36,29.13,5.14ZM851.09,1087.04c2.95,5.65,9.57,7.09,16.28,3.59s9.32-9.76,6.38-15.41c-2.92-5.61-9.57-7.09-16.28-3.59s-9.3,9.8-6.38,15.41ZM865.97,1111.11c2.61,5,8.19,6.4,13.88,3.44,5.72-2.98,7.73-8.35,5.12-13.35-2.63-5.04-8.17-6.46-13.9-3.48-5.68,2.96-7.73,8.35-5.1,13.38Z"/><path class="cls-4" d="M838.02,1128.34c3.06,7.81-.41,15.92-8.22,18.98-7.77,3.05-15.83-.54-18.89-8.35s.41-15.92,8.18-18.97c7.81-3.06,15.87.53,18.93,8.34ZM817.07,1136.55c1.71,4.37,6.08,6.31,10.32,4.64,4.29-1.68,6.13-6.05,4.42-10.42-1.71-4.37-6.04-6.32-10.32-4.64-4.25,1.66-6.13,6.05-4.42,10.42Z"/><path class="cls-4" d="M725.59,1111.73l9.82,61.3-9.35,1.5-30.1-39.97-.68.11,7,43.67-9.01,1.44-9.82-61.3,9.3-1.49,30.17,40.13.68-.11-7.02-43.84,9.01-1.44Z"/><path class="cls-4" d="M492.83,1140.65l-6.81-1.85c-6.27-1.71-11.53.92-13.03,6.44-1.49,5.48,1.67,10.08,7.94,11.79s11.35-.75,13.37-6.39l9.17,2.5c-3.54,10.72-13.08,15.3-25.11,12.02-11.58-3.15-17.84-11.76-15.31-21.06,1.93-7.1,7.29-11.21,14.2-10.89l.19-.71c-7.78-3.19-11.13-9.89-8.94-17.94,2.83-10.42,13.78-15.24,26.6-11.75,12.58,3.42,19.22,12.76,16.81,23.74l-9.34-2.54c1.04-5.78-2.67-10.67-9.56-12.54-7.35-2-13.01.47-14.61,6.37-1.64,6.02,2.09,11.18,9.51,13.2l7.01,1.91-2.1,7.72Z"/><path class="cls-4" d="M461.68,1078.29l-15.15,25.26-11.14-4.36,17.95-24.16,8.33,3.26Z"/><path class="cls-4" d="M409.65,1091.2c-3.54,6.79-10.94,9.92-18.91,7.91l-.34.65c5.01,4.45,6.23,11.05,3.17,16.93-4.51,8.66-15.42,10.79-26.29,5.13-10.88-5.66-15.39-15.82-10.88-24.48,3.06-5.88,9.11-8.65,15.72-7.09l.34-.65c-6.23-5.18-7.96-13.22-4.41-20.05,4.95-9.5,16.76-11.6,29.12-5.16s17.42,17.32,12.47,26.82ZM365.9,1101.26c-2.6,5-.55,10.38,5.13,13.34,5.72,2.98,11.27,1.55,13.87-3.45,2.62-5.04.61-10.4-5.11-13.38-5.69-2.96-11.27-1.55-13.89,3.49ZM377.1,1075.27c-2.94,5.65-.33,11.91,6.39,15.4,6.72,3.5,13.34,2.05,16.28-3.6,2.92-5.61.33-11.91-6.39-15.4-6.72-3.5-13.36-2.01-16.28,3.6Z"/><path class="cls-4" d="M312.57,1076.33l-.36.54,27.12,18.03-4.88,7.34-35.9-23.87,4.95-7.45,51.87-29.37,9.14,6.07-51.94,28.7Z"/><path class="cls-4" d="M296.43,1012.94l21.51,17.86-5.3,6.39-41.68,19.29-8.11-6.73,40.69-18.83.44-.53-13.24-10.99-10.55,12.71-7.15-5.94,10.61-12.77-6.82-5.66,5.44-6.55,6.75,5.61,7.86-9.47,7.41,6.16-7.86,9.47Z"/><path class="cls-4" d="M274.28,999.71c-5.49,5.34-13.5,6-20.44,1.58l-.52.51c3.36,5.79,2.45,12.45-2.3,17.07-7,6.81-18.02,5.42-26.58-3.37-8.55-8.79-9.65-19.84-2.66-26.66,4.75-4.62,11.36-5.36,17.15-1.81l.52-.51c-4.29-6.87-3.42-15.04,2.1-20.42,7.67-7.47,19.55-5.76,29.27,4.22,9.72,9.99,11.12,21.9,3.44,29.38ZM229.58,995.56c-4.04,3.93-3.78,9.69.69,14.28,4.5,4.62,10.22,5,14.25,1.07,4.07-3.96,3.84-9.68-.66-14.31-4.47-4.59-10.22-5-14.29-1.04ZM248.36,974.39c-4.56,4.44-4.04,11.2,1.24,16.63,5.28,5.42,12.03,6.12,16.59,1.68,4.53-4.41,4.04-11.2-1.24-16.63-5.28-5.42-12.06-6.09-16.59-1.68Z"/><path class="cls-4" d="M224.57,968.39c-16.31,12.81-30.41,13.66-39.29,2.36-8.85-11.26-4.69-24.77,11.62-37.58,16.34-12.84,30.44-13.69,39.29-2.42,8.88,11.3,4.71,24.8-11.62,37.64ZM221.13,958.02l-27.33-7.63c-4.34,5.76-4.92,10.87-1.68,15,4.92,6.26,14.04,4.5,26.15-5.01,1.01-.8,1.97-1.6,2.86-2.35ZM203.2,941.19c-.98.77-1.94,1.58-2.82,2.33l27.34,7.57c4.3-5.73,4.91-10.81,1.64-14.97-4.89-6.22-14.02-4.47-26.16,5.07Z"/><path class="cls-4" d="M170.35,927.11c-7.11,4.45-15.72,2.54-20.17-4.57-4.43-7.07-2.4-15.66,4.71-20.11,7.11-4.46,15.72-2.54,20.15,4.53,4.45,7.11,2.42,15.69-4.69,20.15ZM158.41,908.05c-3.97,2.49-5.07,7.14-2.65,11,2.44,3.9,7.08,4.9,11.06,2.41,3.97-2.49,5.09-7.1,2.65-11-2.42-3.86-7.08-4.9-11.06-2.41Z"/><path class="cls-4" d="M151.83,774.68l12.93,35.89-58.39,21.03-12.93-35.89,8.54-3.08,9.4,26.1,16.27-5.86-8.86-24.6,7.97-2.87,8.86,24.6,17.08-6.15-9.4-26.1,8.54-3.07Z"/><line class="cls-1" x1="625.38" y1="188.38" x2="625.38" y2="221.38"/><line class="cls-1" x1="579.71" y1="190.78" x2="583.15" y2="223.6"/><line class="cls-1" x1="534.53" y1="197.93" x2="541.39" y2="230.21"/><line class="cls-1" x1="490.34" y1="209.77" x2="500.54" y2="241.16"/><line class="cls-1" x1="447.64" y1="226.16" x2="461.06" y2="256.31"/><line class="cls-1" x1="406.88" y1="246.93" x2="423.38" y2="275.51"/><line class="cls-1" x1="368.52" y1="271.84" x2="387.92" y2="298.54"/><line class="cls-1" x1="332.97" y1="300.63" x2="355.06" y2="325.15"/><line class="cls-1" x1="300.63" y1="332.97" x2="325.15" y2="355.06"/><line class="cls-1" x1="271.84" y1="368.52" x2="298.54" y2="387.92"/><line class="cls-1" x1="246.93" y1="406.88" x2="275.51" y2="423.38"/><line class="cls-1" x1="226.16" y1="447.64" x2="256.31" y2="461.06"/><line class="cls-1" x1="209.77" y1="490.34" x2="241.16" y2="500.54"/><line class="cls-1" x1="197.93" y1="534.53" x2="230.21" y2="541.39"/><line class="cls-1" x1="190.78" y1="579.71" x2="223.6" y2="583.15"/><line class="cls-1" x1="188.38" y1="625.38" x2="221.38" y2="625.38"/><line class="cls-1" x1="190.78" y1="671.06" x2="223.6" y2="667.61"/><line class="cls-1" x1="197.93" y1="716.24" x2="230.21" y2="709.38"/><line class="cls-1" x1="209.77" y1="760.42" x2="241.16" y2="750.23"/><line class="cls-1" x1="226.16" y1="803.13" x2="256.31" y2="789.71"/><line class="cls-1" x1="246.93" y1="843.88" x2="275.51" y2="827.38"/><line class="cls-1" x1="271.84" y1="882.25" x2="298.54" y2="862.85"/><line class="cls-1" x1="300.63" y1="917.79" x2="325.15" y2="895.71"/><line class="cls-1" x1="332.97" y1="950.14" x2="355.06" y2="925.61"/><line class="cls-1" x1="368.52" y1="978.92" x2="387.92" y2="952.23"/><line class="cls-1" x1="406.88" y1="1003.84" x2="423.38" y2="975.26"/><line class="cls-1" x1="447.64" y1="1024.6" x2="461.06" y2="994.46"/><line class="cls-1" x1="490.34" y1="1041" x2="500.54" y2="1009.61"/><line class="cls-1" x1="534.53" y1="1052.83" x2="541.39" y2="1020.56"/><line class="cls-1" x1="579.71" y1="1059.99" x2="583.15" y2="1027.17"/><line class="cls-1" x1="625.38" y1="1062.38" x2="625.38" y2="1029.38"/><line class="cls-1" x1="671.06" y1="1059.99" x2="667.61" y2="1027.17"/><line class="cls-1" x1="716.24" y1="1052.83" x2="709.38" y2="1020.56"/><line class="cls-1" x1="760.42" y1="1041" x2="750.23" y2="1009.61"/><line class="cls-1" x1="803.13" y1="1024.6" x2="789.71" y2="994.46"/><line class="cls-1" x1="843.88" y1="1003.84" x2="827.38" y2="975.26"/><line class="cls-1" x1="882.25" y1="978.92" x2="862.85" y2="952.23"/><line class="cls-1" x1="917.79" y1="950.14" x2="895.71" y2="925.61"/><line class="cls-1" x1="950.14" y1="917.79" x2="925.61" y2="895.71"/><line class="cls-1" x1="978.92" y1="882.25" x2="952.23" y2="862.85"/><line class="cls-1" x1="1003.84" y1="843.88" x2="975.26" y2="827.38"/><line class="cls-1" x1="1024.6" y1="803.13" x2="994.46" y2="789.71"/><line class="cls-1" x1="1041" y1="760.42" x2="1009.61" y2="750.23"/><line class="cls-1" x1="1052.83" y1="716.24" x2="1020.56" y2="709.38"/><line class="cls-1" x1="1059.99" y1="671.06" x2="1027.17" y2="667.61"/><line class="cls-1" x1="1062.38" y1="625.38" x2="1029.38" y2="625.38"/><line class="cls-1" x1="1059.99" y1="579.71" x2="1027.17" y2="583.15"/><line class="cls-1" x1="1052.83" y1="534.53" x2="1020.56" y2="541.39"/><line class="cls-1" x1="1041" y1="490.34" x2="1009.61" y2="500.54"/><line class="cls-1" x1="1024.6" y1="447.64" x2="994.46" y2="461.06"/><line class="cls-1" x1="1003.84" y1="406.88" x2="975.26" y2="423.38"/><line class="cls-1" x1="978.92" y1="368.52" x2="952.23" y2="387.92"/><line class="cls-1" x1="950.14" y1="332.97" x2="925.61" y2="355.06"/><line class="cls-1" x1="917.79" y1="300.63" x2="895.71" y2="325.15"/><line class="cls-1" x1="882.25" y1="271.84" x2="862.85" y2="298.54"/><line class="cls-1" x1="843.88" y1="246.93" x2="827.38" y2="275.51"/><line class="cls-1" x1="803.13" y1="226.16" x2="789.71" y2="256.31"/><line class="cls-1" x1="760.42" y1="209.77" x2="750.23" y2="241.16"/><line class="cls-1" x1="716.24" y1="197.93" x2="709.38" y2="230.21"/><line class="cls-1" x1="671.06" y1="190.78" x2="667.61" y2="223.6"/><path class="cls-4" d="M625.38,238.38c52.25,0,102.93,10.23,150.63,30.41,46.08,19.49,87.47,47.4,123.02,82.94,35.54,35.54,63.45,76.93,82.94,123.02,20.18,47.7,30.41,98.39,30.41,150.63s-10.23,102.93-30.41,150.63c-19.49,46.08-47.4,87.47-82.94,123.02-35.54,35.54-76.93,63.45-123.02,82.94-47.7,20.18-98.39,30.41-150.63,30.41s-102.93-10.23-150.63-30.41c-46.08-19.49-87.47-47.4-123.02-82.94-35.54-35.54-63.45-76.93-82.94-123.02-20.18-47.7-30.41-98.39-30.41-150.63s10.23-102.93,30.41-150.63c19.49-46.08,47.4-87.47,82.94-123.02,35.54-35.54,76.93-63.45,123.02-82.94,47.7-20.18,98.39-30.41,150.63-30.41M625.38,228.38c-219.26,0-397,177.74-397,397s177.74,397,397,397,397-177.74,397-397-177.74-397-397-397h0Z"/><g class="cls-3"><path class="cls-4" d="M1103.56,575.55c-7.19-76.87-32.68-147.84-76.13-211.43-96.59-141.33-231.02-213.04-401-217.74-41.94.37-83.04,5.46-123.35,16.25-100.76,26.94-184.1,81.4-250,162.45-61.58,75.75-97.25,162.55-106.08,260.2-5.08,56.18,1.01,111.34,16.07,165.55,27.25,97.99,81.34,178.57,160.31,241.24,113.77,90.29,242.9,126.01,386.4,100.06,127.99-23.15,231.37-88.14,307.79-194.19,69.26-96.12,97.01-204.43,85.99-322.38h0ZM282.5,756.11c1.01,1.59,1.54,3.48,1.04,6.37-2.87-2.73-5.75-5.45-9.36-8.87-6.09,4.37-12.38,8.63-18.37,13.28-4.21,3.26-7.33,3.17-10.77-1.16-2.44-3.06-5.73-5.45-8.94-8.43,9.44-12.09,18.74-24.01,28.05-35.93-.43-.38-.86-.75-1.3-1.13-11.84,10.84-23.67,21.67-36.25,33.18-6.6-3.92-13.88-8.25-22.37-13.28,3.67-1.72,5.13-2.82,6.74-3.1,19.19-3.37,31.72-16.51,44.26-29.89,8.14-8.69,16.9-16.81,25.15-24.95,6.92,17.21,12.7,34.35,20.6,50.43,7.91,16.12,14.02,33.61,28.05,46.29-8.55-7.21-18.75-12.1-23.89-22.95-6.07-12.84-13.24-25.17-20-37.84-1.36.85-1.83,1-2.09,1.31-9.71,12.07-8.4,24.29-.56,36.66h0ZM200.65,629.98c-3.04.45-5.97,1.62-9.06,2.5,1.35-6.46,9.47-11.71,34.44-22.36.06,8.08-8.58,18.76-15.25,19.37-3.36.31-6.8,0-10.12.49ZM238.64,675.33c4.94-3.73,9.48-1.62,19.87,10.37-6.55-3.42-13.1-6.83-19.87-10.37ZM323.42,733.26c-4.25-7.19-7.81-13.19-11.5-19.45,23.69-9.21,46.65-18.17,69.64-27.05,18.29-7.05,36.67-13.84,54.86-21.1,4.65-1.86,9.24-4.53,13.01-7.82,18.16-15.88,38.17-28.66,60.12-38.55,4.03-1.82,7.89-4.68,10.94-7.9,14.91-15.73,29.44-31.82,44.28-47.62,2.65-2.82,6.03-5,9.28-7.17,1.86-1.24,4.07-2.05,6.23-2.73,20.63-6.52,35.89-20,48.17-37.41,1.42-2.02,3.22-3.78,6.55-5.44,0,7.79.5,15.62-.14,23.36-.62,7.62,1.41,13.27,7.93,17.45,2.67,1.72,4.76,4.36,6.16,7.89-4.86-2.68-9.73-5.36-14.84-8.18-12.76,14.76-25.81,29.09-37.79,44.26-2.62,3.32-1.89,9.65-1.92,14.6-.06,9.69.16,9.69,7.51,15.83-11.06-2.85-15.62,5.57-21.68,11.34-11.33,10.79-21.88,22.58-37.52,27.54-2.2.7-4.04,3.07-5.66,4.99-12.92,15.23-25.81,30.5-38.56,45.87-6.85,8.27-16.76,10.51-26.23,12.86-3.05.76-7.27-3.19-11.73-5.36,15.98-17.28,30.65-33.14,45.33-49-.34-.51-.68-1.01-1.01-1.52-34.74,22.69-67.53,49.65-112.68,52.39,27.81-17.75,54.82-35,81.83-52.25-.08-.14-.15-.26-.23-.4-49.96,20.12-99.91,40.23-150.35,60.55h0ZM901.46,678.57c8.11,7.12,15.81,14.72,23.67,22.12-.41.58-.81,1.16-1.21,1.73-7.9-4.97-15.79-9.96-25.76-16.26.95,5.33,1.47,8.93,2.24,12.48.85,3.83,3.07,7.75,2.65,11.39-.81,6.98,1.85,11.47,7.12,15.25,2.49,1.77,4.68,3.93,7.02,5.92-.35.61-.7,1.21-1.04,1.81-5.39-2.52-10.76-5.03-16.93-7.91-5.98,6.43-12.05,13.16-18.36,19.64-1.67,1.71-4.22,3.99-6.13,3.77-6.14-.69-8.54,3.2-11.21,7.38-7.49,11.78-15.07,23.5-22.88,35.64-12.35-6.94-24.33-13.67-36.23-20.36,6.52-5.19,13.25-10.55,19.99-15.9-.36-.54-.72-1.09-1.07-1.62-7.75,4.39-16.2,7.89-23.02,13.43-6.22,5.05-10.67,12.29-15.4,19.28,4.89-4.07,9.78-8.14,15.47-12.86,9.43,7.12,19.21,14.51,29,21.89-.1.24-.19.46-.28.69-6.4-2.04-12.78-4.08-19.36-6.17-5.07,5.11-9.87,10.37-15.11,15.12-4.38,3.97-9.34,7.27-13.9,11.05-2.57,2.13-5.73,4.2-7.07,7.04-6.14,12.98-15.67,22.82-26.29,32.15-8.46,7.43-15.62,16.36-23.37,24.62-.69-.6-1.39-1.19-2.08-1.79,9.76-16.73,19.54-33.45,29.99-51.35-2.17.71-2.77.72-3.09,1.03-18.07,18.03-40.32,29.3-62.88,40.39-11.39,5.61-21.75,13.4-32.36,20.52-8.54,5.74-8.4,5.96-17.64-2.7,10.87-8.07,20.77-17.59,32.45-23.65,23.99-12.47,44.7-29.1,65.74-45.73,14.73-11.64,26.34-24.89,33.47-42.17,3.49-8.47,9.21-14.72,16.86-19.78,8.77-5.8,17.19-12.25,25.19-19.09,3.49-2.99,6.22-7.37,8.17-11.64,3.63-7.93,7.92-14.45,15.76-19.38,5.94-3.73,10.37-10.47,14.39-16.58,5.8-8.8,12.05-16.39,22.54-19.9,3.14-1.05,5.82-4.39,8.02-7.22,4.32-5.61,8.16-11.6,12.21-17.43.61.11,1.22.22,1.83.33.44,6.2,1.38,12.41,1.22,18.6-.19,6.98,2.66,11.82,7.69,16.25h0ZM523.63,814.4c22.29-8.82,41.3-22.69,59.32-38.08,4.95-4.21,10.12-7.3,16.6-7.81,11.84-.92,19.12-9.48,27.01-16.68,4.22-3.85,8.51-6.36,14.14-6.9,2.21-.21,4.76-.53,6.47-1.76,11.39-8.25,24.48-14.58,30.84-28.54,2.82-6.2,6.8-11.61,13.48-14.87,2.97-1.46,5.52-5.15,6.86-8.41,7.05-17.1,22.55-26.67,34.31-41.16,5.06,6.97,9.14,12.6,13.77,18.97-10.63-2.32-19.1,6.1-17.97,16,.77,6.86,3.33,12.27,8.54,17.04,5.3,4.87,9.55,10.86,14.26,16.36-.67.63-1.33,1.26-2.01,1.88-9.52-8.73-19.04-17.46-28.89-26.48-1.75,9.86-9.17,16.47-18.06,22.52-5.26,3.59-9.5,5.63-15.37,2.57-1.34-.7-3.03-.71-5.24.29,5.91,4.14,11.83,8.27,18.98,13.27-2.67.13-3.88.56-4.67.16-5.83-2.95-9.31.14-13.12,4.2-8.17,8.73-16.56,17.29-25.28,25.45-8.14,7.61-8.72,7.36-18.24,1.07-1.4-.92-2.86-1.77-5.22-3.22-13.6,11.53-27.05,23.36-41,34.55-5.45,4.37-11.72,8.1-18.17,10.71-20.53,8.33-41.36,15.86-61.96,23.98-5.46,2.16-9.76,1.66-14.16-2.91,8.5-4.26,16.37-8.93,24.77-12.25h0ZM466.16,742.6c-4.37-2-8.35-4.85-12.66-7-6.21-3.09-11.98-5.34-18.51.81-2.61,2.46-8.66,2.62-12.74,1.79-7.3-1.47-13.56-1.31-20.14,2.86-4.43,2.81-10.02,3.87-15.19,5.38-9.76,2.85-19.54,5.65-29.41,8.08-3.34.82-6.97.48-10.48.68-.12-.79-.23-1.57-.35-2.35,10.09-3.57,20.2-7.05,30.25-10.75,7.95-2.93,15.71-6.44,23.74-9.1,6.88-2.27,14.06-3.64,21.09-5.5,2.68-.71,5.53-1.21,7.9-2.54,5.7-3.18,11.74-3.62,17.13-.67,18.17,9.9,36.05,20.34,54.02,30.62.59.34.98,1.01,1.46,1.53-.28.6-.57,1.2-.86,1.79-11.75-5.19-23.57-10.28-35.26-15.65h0ZM588.06,806.29c13.95-12.12,27.79-24.38,41.46-36.83,3.47-3.16,6.16-3.25,9.53-.27,4.22,3.73,8.59,7.27,12.99,10.95-.77.52-1.38,1.13-1.59,1.02-11.09-6-18.85-1.13-26.11,7.35-4.04,4.72-9.41,8.25-13.82,12.68-13.16,13.21-29.97,19.56-47.14,25.47,8.23-6.78,16.62-13.38,24.67-20.37ZM634.16,822.01c7.08-4.49,11.3-10.93,15.66-17.64,2.07-3.18,4.95-6.61,8.26-8.07,13.02-5.76,22.97-14.38,29.23-27.36,1.95-4.07,4.91-7.65,7.71-11.92,9.35,8.43,18.42,16.62,27.49,24.81-.39.65-.78,1.3-1.17,1.94-6.67-3.07-13.32-6.15-20.44-9.44-4.05,5.61-8.16,10.13-10.94,15.36-4.76,9-12.27,13.93-21.43,16.96-5.51,1.83-10.49,4.26-13.37,9.79-.63,1.21-1.78,2.35-2.98,3.01-11.5,6.46-23.06,12.81-34.61,19.19-.46-.71-.92-1.4-1.38-2.11,5.95-4.89,11.5-10.42,17.96-14.51ZM772.4,676.18c.53-.6,1.06-1.19,1.59-1.79,9.39,7.05,18.78,14.09,28.18,21.14-.47.63-.94,1.25-1.41,1.88-9.58-6.9-21.18-11.05-28.36-21.23h0ZM833.25,668.02c-3.95-1.97-7.97-3.78-11.82-5.92-31.29-17.44-62.56-34.92-93.8-52.47-2.18-1.22-4.37-2.79-5.94-4.7-8.86-10.78-18.34-21.18-26.07-32.75-8.76-13.13-15.62-27.56-28.26-37.93,10.03,7.47,22.14,12.42,27.44,24.97,7.3,17.3,21.28,29.42,33.11,43.19,1.76,2.05,4.73,3.04,7.15,4.5,32.18,19.29,64.38,38.57,96.54,57.89.86.51,1.54,1.3,2.31,1.98-.23.41-.45.82-.67,1.23h0ZM696.42,645.78c3.22,1.67,6.35,3.49,9.02,6.71-1.94-.47-3.93-.79-5.8-1.44-14.47-5.05-29.01-9.89-43.31-15.39-5.65-2.18-9.14-.92-13.51,2.97-23.37,20.81-47.06,41.25-70.66,61.81-.49-.38-.97-.77-1.46-1.16,11.3-13.17,22.55-26.37,33.91-39.47,9.71-11.2,19.57-22.26,29.35-33.41,7.72-8.8,7.9-8.78,18.55-3.24,14.61,7.6,29.28,15.07,43.91,22.63ZM354.39,772.62c9.16,7.22,18.65,14.09,28.43,20.41,4.42,2.85,9.83,4.31,14.94,5.92,49.15,15.38,95.73,37.29,143.28,56.71,24.19,9.89,48.31,19.92,72.46,29.9,3.13,1.3,6.21,2.69,9.31,4.04-.14.51-.26,1.01-.4,1.52-33.45-11.24-66.92-22.49-100.37-33.73-.39.78-.77,1.56-1.17,2.34,15.3,13.88,33.8,23.42,50.66,35.18-.3.57-.59,1.13-.88,1.7-5.84-2.54-11.76-4.89-17.5-7.62-43.61-20.79-87.17-41.68-130.79-62.44-4.6-2.18-9.37-4.56-14.29-5.4-11.75-2.01-20.83-8.22-29.38-16.07-11.74-10.8-23.85-21.2-35.87-31.7-6.2-5.41-9.43-12.48-11.23-20.71,7.58,6.68,14.89,13.7,22.81,19.93h0ZM906.86,844.99c-15.03,3.43-29.37,8.5-42.56,16.66-1.53.94-3.51,1.13-5.29,1.68,11.63-8.75,22.34-18.67,36.9-22.19,3.91-.94,8.36-3.08,10.79-6.11,10.3-12.79,25.54-18.72,37.91-28.58,1.4-1.11,4.95-.82,6.76.19,9.04,5.07,18.31,8.61,28.92,8.56,3.16-.02,6.34,2.38,9.19,4.78-11.48,1.67-22.89,5.94-33.29-2.73-4.22-3.52-8.32-3.49-12.85.34-9.73,8.24-19.79,16.07-29.83,23.92-1.95,1.52-4.29,2.93-6.65,3.47h0ZM939.37,718.69c5.69,18.45,22,28.21,32.81,42.31-7.69-5.13-15.66-9.9-22.94-15.58-2.65-2.06-3.99-6.12-5.34-9.51-2.16-5.41-3.83-11.02-4.53-17.23ZM980.11,749.81c-12.46-20.68-39.75-29.7-43.69-58.67,3.62,4.92,6.3,9.01,9.43,12.71,6.03,7.12,12.24,14.07,18.52,20.97,1.9,2.09,4.72,3.45,6.31,5.72,9.76,13.93,24.68,20.4,38.96,27.86,9.02,4.72,17.98,9.56,26.97,14.35-.38.81-.76,1.61-1.13,2.43-18.46-8.45-36.91-16.92-55.36-25.37h0ZM934.46,667.06c-11.68-9.57-23.23-19.3-34.86-28.94-2.15-1.79-4.39-3.46-7.47-5.87-5.61,7.53-10.85,13.95-15.36,20.85-2.85,4.36-5.51,5.6-10.45,3.41-27.26-12.08-54.62-23.89-81.94-35.84-3.33-1.46-6.57-3.14-11.8-5.66,17.72-4.07,28.04-15.54,38.9-26.45,1.7-1.71,5.87-2.35,8.33-1.59,5.17,1.58,8.65.08,12.03-3.59,2.89-3.14,6.24-5.85,9.2-8.94,4.27-4.47,8.21-8.83,15.14-3.95,1.22.85,4.96-.54,6.63-1.97,4.75-4.07,9.04-8.67,13.49-13.1,5.39-5.36,9.96-11.56,18.14-13.53,2.96-.72,5.35-4.07,7.87-6.36,3.77-3.43,7.41-6.98,12.04-11.35,7.75,6.58,15.31,12.54,22.31,19.11,4.5,4.24,9.39,6.27,15.31,8.14,13.08,4.11,26.55,7.62,37.97,16.28,3.93,2.99,9.86,3.25,14.84,4.88,3.13,1.03,6.67,1.66,9.19,3.58,5.18,3.97,10.1,8.4,14.55,13.18,3.83,4.11,7.03,4.16,11.76,1.45,14.28-8.16,28.82-15.83,43.29-23.65.7-.38,1.6-.38,3.4-.78.75,5.69,1.48,11.16,2.19,16.58-12.73,7.38-24.62,14.66-36.89,21.2-5.3,2.82-7.73,6.7-9.62,12.14-1.37,3.92-4.97,7.07-7.63,10.52-.32.41-.95.65-1.48.83-15.8,5.31-28.05,15.41-38.4,28.29-4.63,5.76-10.44,8.25-18.09,5.45-7.45-2.72-14.47-1.66-20.04,4.71-.55.63-1.31,1.09-2.01,1.58-10.44,7.26-10.88,7.32-20.57-.62h0ZM164.73,559.3c7.81-53.4,24.64-103.86,50.41-151.09,53.32-97.76,131.32-168.44,233.49-211.62,64.44-27.24,131.92-37.58,201.67-34.03,99.7,5.07,188.67,39.04,266.34,101.69,84.92,68.5,140.45,156.18,164.51,263.41,2.31,10.27,3.9,20.7,5.9,31.42-17.83,9.18-34.7,17.85-52.52,27.01-5.21-4.62-11.3-9.64-16.93-15.16-3.32-3.25-6.81-4.26-11.35-4.54-4.9-.3-10.75-.91-14.34-3.74-11.26-8.92-24.33-12.74-37.65-16.61-4.94-1.43-9.6-4.49-13.81-7.6-7.31-5.41-14.2-11.39-21.19-17.23-3.68-3.08-6.99-3.12-10.45.39-3.21,3.24-6.46,6.5-10.05,9.26-3.46,2.66-7.41,4.66-11.09,7.04-2.35,1.53-4.87,2.97-6.82,4.95-5.82,5.87-11.41,11.97-17.04,18.03-2.68,2.88-5.32,5.26-9.45,2.28-4.7-3.39-8.49-1.31-12.03,2.22-2.83,2.82-6.1,5.23-8.67,8.25-4.68,5.51-9.54,9.3-17.49,6.9-2.06-.63-5.38,1.17-7.44,2.75-3.38,2.56-6.28,5.8-9.24,8.88-8.94,9.26-19.37,15.74-33.7,18.08-38.22-41.9-78.28-83.2-130.26-111.9-6.85,7.58-14.93,15.61-21.93,24.51-7.3,9.26-15.71,16.77-27.01,19.86-21.21,5.8-33.54,22.51-47.11,37.7-9.33,10.44-9.38,10.96-21.64,3.65-12.99-7.74-25.51-16.27-39.16-25.06-7.98,5.64-17.14,11.82-25.96,18.46-3.83,2.89-7.03,3.26-11.69,1.79-10.37-3.27-18.91-9.1-26.45-16.61-4.89-4.88-9.26-5.25-15.75-1.95-13.59,6.91-27.81,12.61-41.91,18.43-2.28.94-5.54.45-8.03-.34-8.09-2.61-16.12-5.45-24-8.67-2.75-1.12-5.14-3.4-7.38-5.5-6.62-6.22-13.08-12.61-20.1-19.44-6.48,4.85-12.27,9.37-18.28,13.59-2.21,1.56-5.8,4.08-7.24,3.3-6.55-3.53-10.32.89-14.22,4.25-5.01,4.31-10.05,6.68-16.99,5.78-3.13-.4-6.93,1.76-9.93,3.57-6.31,3.81-12.47,7.95-18.37,12.37-4.39,3.29-7.89,2.71-12.3-.12-4.87-3.13-10.64-4.81-15.59-7.84-6.74-4.11-13.27-8.64-19.4-13.61-1.24-1.01-.71-4.77-.36-7.16h0ZM159.39,628.48c1.01-18.99,1.92-36.29,2.93-55.39,15.86,9.47,30.1,17.98,43.9,26.21,10.49-7.1,20.03-13.66,29.7-20.02,1.32-.87,3.36-1.43,4.84-1.1,7.84,1.77,13.66-1.59,19.11-6.69,2.87-2.69,5.83-5.27,10.56-2.61,1.42.8,4.73-.73,6.62-2.02,6.57-4.45,12.89-9.27,20.08-14.52,6.5,6.45,12.72,13.04,19.42,19.06,2.76,2.47,6.46,4.08,9.95,5.5,7.09,2.87,14.22,5.75,21.56,7.82,3.48.97,7.92,1.14,11.16-.19,14.39-5.93,28.55-12.41,42.67-18.96,4.08-1.89,7.29-1.15,9.9,1.96,7.83,9.33,18.8,13.26,29.37,18.07,4.83,2.2,8.22,1.78,12.35-1.5,7.12-5.65,14.86-10.51,22.12-15.99,3.42-2.58,5.81-2.34,8.77.71,4.72,4.85,9.28,10.23,17,10.22.74,0,1.51.75,2.21,1.25,6.79,4.96,13.58,9.93,20.84,15.25-4.65,7.11-10.7,14-19.58,17.87-22.33,9.71-41.7,23.81-61.03,38.58-10.61,8.1-25.07,11.48-38.2,15.69-4.33,1.39-10.01-1.01-14.96-2.15-7.95-1.81-15.64-1.68-23.51.77-9.72,3.03-19.26,5.66-29.82,1.33-4.74-1.94-11.22-.14-16.79.74-5.5.87-9.36-.84-12.49-5.2-1.15-1.6-2.86-2.83-3.95-4.48-5.15-7.81-12.6-11-21.63-11.46-13.13-.68-20.93-10.28-29.46-18.41-6.8-6.49-13.24-13.37-19.63-20.28-3.15-3.4-6.08-3.73-10.46-2.07-17.51,6.62-35.18,12.8-52.83,19.06-2.9,1.02-5.94,1.64-10.71,2.93h0ZM241.7,791.22c-2.2-2.63-4.77-5.02-6.54-7.91-6.85-11.24-19.57-12.89-29.77-18.6-1.54-.86-4.35.27-6.48.84-4.59,1.21-9.13,2.67-14.26,4.2-1.55-4.66-2.88-8.63-4.32-12.95,5.97-3.14,11.47-6.62,17.42-8.86,2.24-.84,5.76.73,8.32,1.98,21.57,10.56,38.72,26.44,54.22,44.64,19.64,23.05,40.98,44.42,65.75,62.05,1.59,1.14,2.97,2.6,4.45,3.91l-1,1.33c-6.04-3.57-12.09-7.15-18.14-10.7-25.67-15.02-48.88-35-69.65-59.93h0ZM1048.47,817.87c-5.59-3.69-10.92-7.21-16.71-11.04-6.49,10.13-12.49,19.79-18.82,29.23-1.99,2.98-4.37,6.14-7.32,7.96-27.09,16.69-54.34,33.1-81.56,49.58-1.59.96-3.28,1.75-5.4,1.98,37.07-35.26,81.98-61.97,111.32-106.49,8.85,6.98,16.18,12.74,24,18.91-1.82,3.26-3.44,6.18-5.5,9.87h0ZM1036.02,682.86c5.82,5.01,10.95,9.43,16.1,13.85-.57.74-1.14,1.48-1.71,2.22-6.4-3.98-12.8-7.95-19.2-11.92-.6.17-1.21.35-1.81.53,1.67,8.61-3.68,11.29-9.87,13.78-9.4,3.8-18.6,8.09-28.7,12.52-3.86-4.19-8.62-9.32-13.63-14.74,15.14-7.11,26.7-20.95,44.06-26.43,8.87-2.8,16.02-11.12,24.77-17.55,3.27,2.27,7.39,5.14,12.59,8.75-15.75-2.22-15.24,11.54-22.61,18.98h0ZM1088.57,672.53c-14.79-9.22-28.91-18.01-43.04-26.81-2.3,2.06-4.06,3.48-5.66,5.08-9.58,9.67-20.91,16.22-33.68,20.96-5.79,2.15-10.53,7.17-15.77,10.84-2.24,1.57-4.41,3.41-6.89,4.44-5.15,2.12-10.48,3.79-17.02,6.09-4.59-3.92-10.14-8.66-15.71-13.42,4.48-3.69,8.04-7.55,12.39-9.9,3.15-1.7,7.74-2.73,11.03-1.78,11.36,3.29,20.15.11,27.05-9.01,9.21-12.18,21.12-20.5,35.35-25.59,6.76-2.43,10.19-7.33,12.42-14.05,1.21-3.65,4.03-7.55,7.22-9.6,10.46-6.69,21.42-12.58,33.76-19.68,1.86,28.32,1.65,54.86-1.45,82.43h0Z"/><path class="cls-4" d="M275.62,626.49c9.87-3.29,19.74-6.6,29.63-9.81,1.02-.33,2.37-.36,3.35.02,8.88,3.52,18,6.6,26.47,10.94,9.46,4.84,18.3,10.97,29.51,4-6.3,9.14-17.9,6.23-26.01,2.57-10-4.51-20.15-8.71-30.42-12.57-2.05-.78-4.94.36-7.36.92-8.21,1.9-16.38,3.94-24.58,5.93-.2-.66-.39-1.33-.59-1.99Z"/><path class="cls-4" d="M427.47,615.49c-9.98-5.05-19.93-8.64-31.43-8.86-10.36-.2-10.32-2.13-19.88.26,8.87-7.1,8.85-7.06,18.55-3.4,2.08.79,4.74,2.07,6.49,1.4,9.46-3.6,15.9,2.51,23.04,6.54,1.21.68,2.45,1.31,3.68,1.97-.14.69-.29,1.39-.43,2.07h0Z"/><path class="cls-4" d="M853.72,604.07c4.88-4.35,9.81-8.64,14.64-13.06,3-2.74,5.35-2.19,9.02-.36,9.56,4.79,17.65,11,24.52,19.21,6.93,8.27,16.38,10.12,26.39,7.68,6.75-1.64,11.89-.55,16.32,4.79,5.84,7.05,14.09,11.64,22.92,13.93,6.4,1.66,12.66,3.89,18.98,5.85l-.46,2.07c-8.69-2.09-17.51-3.78-26.05-6.39-7.62-2.33-14.23-6.42-19.47-12.98-1.86-2.33-6.75-4.01-9.67-3.36-17.46,3.91-29.09-3.52-39.45-16.96-3.98-5.16-11.69-7.64-18.05-10.58-1.59-.73-4.78,1.04-6.76,2.38-4.15,2.82-7.99,6.12-11.95,9.22-.31-.49-.62-.97-.93-1.46v.02Z"/><path class="cls-4" d="M556.14,614.11c7.22-21.85,24.16-35.32,41.55-48.4-15.05,15.1-32.69,27.97-41.55,48.4Z"/><path class="cls-4" d="M858.3,714.24c9.73-12.05,19.46-24.1,29.18-36.15-.45,7-2.09,12.73-8.08,17.21-7.48,5.58-13.88,12.59-20.75,18.99-.12-.02-.23-.04-.35-.05h0Z"/></g></svg>