<svg width="44" height="44" viewBox="0 0 44 44" fill="none" xmlns="http://www.w3.org/2000/svg">
<path d="M12 19.25C12 17.5931 13.3431 16.25 15 16.25H16.5236C16.8586 16.25 17.1714 16.0822 17.3567 15.8032L17.89 15L18.1266 14.6437C18.4972 14.0855 19.1227 13.75 19.7927 13.75H24.2073C24.8773 13.75 25.5028 14.0855 25.8734 14.6437L26.6433 15.8032C26.8286 16.0822 27.1414 16.25 27.4764 16.25H29C30.6569 16.25 32 17.5931 32 19.25V27.25C32 28.9069 30.6569 30.25 29 30.25H15C13.3431 30.25 12 28.9069 12 27.25V19.25Z" stroke="#B8B8B8" stroke-width="1.5"/>
<circle cx="22" cy="22.75" r="4" stroke="#B8B8B8" stroke-width="1.5"/>
<circle cx="28" cy="19.25" r="1" fill="#B8B8B8"/>
</svg>
