<svg width="96" height="96" viewBox="0 0 96 96" fill="none" xmlns="http://www.w3.org/2000/svg">
<path fill-rule="evenodd" clip-rule="evenodd" d="M43.8168 13.4996C45.0566 14.4429 46.106 15.5666 46.9649 16.8708C48.3273 18.9398 49.0086 21.2989 49.0086 23.9482C49.0086 26.446 48.3652 28.7673 47.0784 30.9119C45.7916 33.0313 43.9876 34.7471 41.6663 36.0591C39.3451 37.3711 36.6327 38.0271 33.5293 38.0271C30.8548 38.0271 28.8111 38.3425 27.3982 38.9733C25.9852 39.5788 25.2787 40.525 25.2787 41.8117C25.2787 42.7201 25.9095 43.477 27.1711 44.0826C28.4579 44.6629 30.9431 45.2306 34.6269 45.7856L40.0389 46.7318C44.4291 47.4131 47.6587 48.5737 49.7277 50.2137C50.0326 50.4489 50.3154 50.6963 50.5759 50.9561H55.8115C55.8173 48.7032 55.8421 46.8109 55.8858 45.2791C55.9615 43.4877 56.0751 42.0117 56.2265 40.851C56.4031 39.6652 56.6428 38.6307 56.9455 37.7476C57.6268 35.8805 58.7243 34.2531 60.2382 32.8654C61.7521 31.4777 63.5182 30.4054 65.5367 29.6484C67.5804 28.8663 69.6998 28.4752 71.895 28.4752C74.7461 28.4752 77.143 29.0934 79.0858 30.3297C81.0286 31.5408 82 33.1051 82 35.0227C82 36.1328 81.6468 37.0538 80.9403 37.7855C80.2338 38.4919 79.3003 38.8452 78.1396 38.8452C76.9033 38.8452 76.0076 38.4415 75.4525 37.6341C74.8975 36.8015 74.5064 35.8805 74.2793 34.8713C73.9765 33.534 73.5602 32.5626 73.0304 31.9571C72.5257 31.3515 71.6805 31.0488 70.4946 31.0488C69.3592 31.0488 68.2995 31.3263 67.3155 31.8814C66.3567 32.4113 65.5872 33.3322 65.0069 34.6442C64.5275 35.7796 64.1616 37.3187 63.9093 39.2615C63.657 41.1791 63.5308 43.7022 63.5308 46.8308V50.9561H73.2574L72.3491 53.5297H63.5308V87.8944L71.63 89.1055V90.6572H50.0575V89.1055L55.8101 87.8944V53.5297H52.2838C52.6739 54.5113 52.8689 55.6011 52.8689 56.799C52.8689 59.095 52.2255 61.0883 50.9387 62.7788C49.652 64.4693 47.9236 65.857 45.7538 66.9419C43.6091 68.0521 41.2122 68.8721 38.5629 69.4019C35.9136 69.9318 33.2265 70.1967 30.5016 70.1967C28.5083 70.1967 26.5529 70.0075 24.6354 69.629C22.7178 69.2758 20.9768 68.7081 19.4125 67.9259C17.8734 67.1438 16.6371 66.1345 15.7035 64.8982C14.77 63.6619 14.3032 62.1606 14.3032 60.3944C14.3032 58.3255 15.0728 56.4584 16.6119 54.7931C18.0086 53.3048 20.3196 51.8685 23.5448 50.4841C22.5352 50.042 21.675 49.5356 20.9642 48.9648C19.3242 47.6275 18.5042 46.0253 18.5042 44.1582C18.5042 43.3004 18.7691 42.3794 19.299 41.3954C19.8541 40.4114 20.9138 39.4905 22.4781 38.6326C23.6631 37.9637 25.2751 37.4251 27.3143 37.0167C26.7566 36.8158 26.2168 36.5849 25.6951 36.324C23.4243 35.1634 21.6455 33.5486 20.3587 31.4796C19.0719 29.3854 18.4285 26.9506 18.4285 24.1752C18.4285 21.5007 19.0845 19.1164 20.3965 17.0222C21.7338 14.928 23.5504 13.2754 25.8464 12.0643C28.1425 10.8532 30.7413 10.2477 33.6428 10.2477C36.5192 10.2477 39.118 10.8406 41.4392 12.0265C41.5998 12.1067 41.7581 12.1892 41.914 12.2738C42.2995 11.2863 42.772 10.2829 43.3316 9.26366C44.038 7.95164 44.9211 6.84148 45.9808 5.93316C47.0405 5.02484 48.2895 4.57068 49.7277 4.57068C50.9135 4.57068 51.948 4.9113 52.8311 5.59254C53.7142 6.27378 54.1557 7.20733 54.1557 8.39319C54.1557 9.40243 53.8151 10.2729 53.1339 11.0046C52.4526 11.7111 51.6074 12.0643 50.5981 12.0643C49.8664 12.0643 49.324 11.9003 48.9707 11.5723C48.6175 11.2443 48.2895 10.9163 47.9867 10.5883C47.7092 10.2603 47.255 10.0963 46.6242 10.0963C45.943 10.0963 45.3248 10.5378 44.7697 11.4209C44.3648 12.0467 44.0472 12.7396 43.8168 13.4996ZM26.0397 51.362C24.5131 52.0871 23.288 53.1047 22.3646 54.4147C21.2796 55.979 20.7371 57.6569 20.7371 59.4483C20.7371 61.2901 21.2544 62.804 22.2889 63.9899C23.3233 65.201 24.6984 66.0967 26.4141 66.677C28.1551 67.2825 30.0348 67.5853 32.0533 67.5853C34.5007 67.5853 36.8346 67.3078 39.0549 66.7527C41.3005 66.1976 43.1297 65.3397 44.5427 64.1791C45.9808 63.0185 46.6999 61.5298 46.6999 59.7132C46.6999 58.7796 46.3972 57.9344 45.7916 57.1775C45.1861 56.4205 44.0128 55.7015 42.2719 55.0202C40.5562 54.3642 38.0204 53.7208 34.6647 53.09L28.42 51.9168C27.5727 51.7551 26.7792 51.5702 26.0397 51.362ZM37.9574 33.6747C36.8977 34.9111 35.409 35.5292 33.4915 35.5292C31.5739 35.5292 30.1105 34.9111 29.1013 33.6747C28.1172 32.4384 27.4486 30.975 27.0954 29.2845C26.7421 27.5688 26.5655 25.9919 26.5655 24.5537C26.5655 23.4183 26.6665 22.1694 26.8683 20.8069C27.0701 19.4444 27.436 18.145 27.9659 16.9087C28.4957 15.6471 29.24 14.6253 30.1988 13.8431C31.1576 13.0357 32.3939 12.632 33.9078 12.632C35.3459 12.632 36.5192 13.0105 37.4275 13.7674C38.3611 14.4991 39.0675 15.4453 39.5469 16.6059C40.0515 17.7413 40.3922 18.9524 40.5688 20.2392C40.7706 21.5007 40.8715 22.674 40.8715 23.7589C40.8715 25.4746 40.6571 27.2534 40.2282 29.0953C39.7992 30.9119 39.0423 32.4384 37.9574 33.6747Z" fill="#171717" style="fill:#171717;fill:color(display-p3 0.0889 0.0889 0.0889);fill-opacity:1;"/>
</svg>
