<svg width="366" height="185" viewBox="0 0 366 185" fill="none" xmlns="http://www.w3.org/2000/svg">
<path d="M56.36 26.2C56.8133 24.8933 57.4133 23.56 58.16 22.2C58.9067 20.8133 59.84 19.64 60.96 18.68C62.08 17.72 63.4 17.24 64.92 17.24C66.1733 17.24 67.2667 17.6 68.2 18.32C69.1333 19.04 69.6 20.0267 69.6 21.28C69.6 22.3467 69.24 23.2667 68.52 24.04C67.8 24.7867 66.9067 25.16 65.84 25.16C65.0667 25.16 64.4933 24.9867 64.12 24.64C63.7467 24.2933 63.4 23.9467 63.08 23.6C62.7867 23.2533 62.3067 23.08 61.64 23.08C60.92 23.08 60.2667 23.5467 59.68 24.48C59.0933 25.3867 58.68 26.4267 58.44 27.6L56.36 26.2ZM47.76 49.96C49.7867 49.96 51.36 49.3067 52.48 48C53.6267 46.6933 54.4267 45.08 54.88 43.16C55.3333 41.2133 55.56 39.3333 55.56 37.52C55.56 36.3733 55.4533 35.1333 55.24 33.8C55.0533 32.44 54.6933 31.16 54.16 29.96C53.6533 28.7333 52.9067 27.7333 51.92 26.96C50.96 26.16 49.72 25.76 48.2 25.76C46.6 25.76 45.2933 26.1867 44.28 27.04C43.2667 27.8667 42.48 28.9467 41.92 30.28C41.36 31.5867 40.9733 32.96 40.76 34.4C40.5467 35.84 40.44 37.16 40.44 38.36C40.44 39.88 40.6267 41.5467 41 43.36C41.3733 45.1467 42.08 46.6933 43.12 48C44.1867 49.3067 45.7333 49.96 47.76 49.96ZM47.8 52.6C44.9733 52.6 42.8133 52.9333 41.32 53.6C39.8267 54.24 39.08 55.24 39.08 56.6C39.08 57.56 39.7467 58.36 41.08 59C42.44 59.6133 45.0667 60.2133 48.96 60.8L54.68 61.8C59.32 62.52 62.7333 63.7467 64.92 65.48C67.1333 67.1867 68.24 69.5067 68.24 72.44C68.24 74.8667 67.56 76.9733 66.2 78.76C64.84 80.5467 63.0133 82.0133 60.72 83.16C58.4533 84.3333 55.92 85.2 53.12 85.76C50.32 86.32 47.48 86.6 44.6 86.6C42.4933 86.6 40.4267 86.4 38.4 86C36.3733 85.6267 34.5333 85.0267 32.88 84.2C31.2533 83.3733 29.9467 82.3067 28.96 81C27.9733 79.6933 27.48 78.1067 27.48 76.24C27.48 74.0533 28.2933 72.08 29.92 70.32C31.5467 68.5867 34.3467 66.92 38.32 65.32L40.76 66.32C38.7333 67.0933 37.1467 68.2933 36 69.92C34.8533 71.5733 34.28 73.3467 34.28 75.24C34.28 77.1867 34.8267 78.7867 35.92 80.04C37.0133 81.32 38.4667 82.2667 40.28 82.88C42.12 83.52 44.1067 83.84 46.24 83.84C48.8267 83.84 51.2933 83.5467 53.64 82.96C56.0133 82.3733 57.9467 81.4667 59.44 80.24C60.96 79.0133 61.72 77.44 61.72 75.52C61.72 74.5333 61.4 73.64 60.76 72.84C60.12 72.04 58.88 71.28 57.04 70.56C55.2267 69.8667 52.5467 69.1867 49 68.52L42.4 67.28C38.9067 66.6133 36.28 65.5733 34.52 64.16C32.7867 62.7467 31.92 61.0533 31.92 59.08C31.92 58.1733 32.2 57.2 32.76 56.16C33.3467 55.12 34.4667 54.1467 36.12 53.24C37.7733 52.3067 40.2133 51.6133 43.44 51.16L47.8 52.6ZM47.8 52.6C44.68 52.6 41.92 52 39.52 50.8C37.12 49.5733 35.24 47.8667 33.88 45.68C32.52 43.4667 31.84 40.8933 31.84 37.96C31.84 35.1333 32.5333 32.6133 33.92 30.4C35.3333 28.1867 37.2533 26.44 39.68 25.16C42.1067 23.88 44.8533 23.24 47.92 23.24C50.96 23.24 53.7067 23.8667 56.16 25.12C58.6133 26.3467 60.56 28.0533 62 30.24C63.44 32.4267 64.16 34.92 64.16 37.72C64.16 40.36 63.48 42.8133 62.12 45.08C60.76 47.32 58.8533 49.1333 56.4 50.52C53.9467 51.9067 51.08 52.6 47.8 52.6Z" fill="#331D14" style="fill:#331D14;fill:color(display-p3 0.2000 0.1137 0.0784);fill-opacity:1;"/>
<path d="M84.4275 66.84C80.4275 66.84 77.5075 65.92 75.6675 64.08C73.8275 62.2133 72.9075 59.52 72.9075 56V27.04L66.9875 25.8V24.04H81.0675V52.8C81.0675 56.2933 81.6808 58.6933 82.9075 60C84.1608 61.3067 86.1342 61.96 88.8275 61.96C90.6675 61.96 92.4675 61.48 94.2275 60.52C95.9875 59.56 97.6142 58.0533 99.1075 56V59.2C97.0808 61.68 94.8008 63.5733 92.2675 64.88C89.7342 66.1867 87.1208 66.84 84.4275 66.84ZM98.8275 66.84V58.96L98.3875 58.8V27.04L92.5075 25.8V24.04H106.548V59.92L111.988 61.84V62.92L99.5075 66.84H98.8275Z" fill="#331D14" style="fill:#331D14;fill:color(display-p3 0.2000 0.1137 0.0784);fill-opacity:1;"/>
<path d="M112.884 66V64.24L118.964 63V30.4L113.004 28.28V27.04L126.284 23.24H127.164V63L133.164 64.24V66H112.884ZM123.004 14.84C121.378 14.84 120.084 14.32 119.124 13.28C118.164 12.24 117.684 11.0267 117.684 9.64C117.684 8.12 118.164 6.84 119.124 5.8C120.084 4.76 121.378 4.24 123.004 4.24C124.658 4.24 125.964 4.76 126.924 5.8C127.911 6.84 128.404 8.12 128.404 9.64C128.404 11.0267 127.911 12.24 126.924 13.28C125.964 14.32 124.658 14.84 123.004 14.84Z" fill="#331D14" style="fill:#331D14;fill:color(display-p3 0.2000 0.1137 0.0784);fill-opacity:1;"/>
<path d="M132.619 66V64.24L138.699 63V7.4L132.699 5.27999V4.04L146.019 0.279995H146.859V63L152.859 64.24V66H132.619Z" fill="#331D14" style="fill:#331D14;fill:color(display-p3 0.2000 0.1137 0.0784);fill-opacity:1;"/>
<path d="M152.369 66V64.24L158.449 63V7.4L152.449 5.27999V4.04L165.769 0.279995H166.609V63L172.609 64.24V66H152.369Z" fill="#331D14" style="fill:#331D14;fill:color(display-p3 0.2000 0.1137 0.0784);fill-opacity:1;"/>
<path d="M183.719 66.84C180.866 66.84 178.546 65.9467 176.759 64.16C174.999 62.3733 174.119 60.0533 174.119 57.2C174.119 54.8533 174.839 52.8267 176.279 51.12C177.719 49.4133 180.039 47.92 183.239 46.64C186.466 45.3333 190.719 44.1467 195.999 43.08V35.6C195.999 32.2133 195.533 29.84 194.599 28.48C193.693 27.12 192.119 26.44 189.879 26.44C187.666 26.44 185.906 26.9733 184.599 28.04C183.293 29.1067 182.639 30.5467 182.639 32.36C182.639 32.8667 182.666 33.3733 182.719 33.88C182.799 34.36 182.839 34.8267 182.839 35.28C182.839 36.64 182.426 37.76 181.599 38.64C180.799 39.52 179.773 39.96 178.519 39.96C177.373 39.96 176.439 39.5867 175.719 38.84C175.026 38.0933 174.679 37.12 174.679 35.92C174.679 34.1867 175.426 32.4133 176.919 30.6C178.439 28.76 180.439 27.1867 182.919 25.88C186.226 24.12 189.813 23.24 193.679 23.24C195.999 23.24 197.959 23.6 199.559 24.32C201.186 25.04 202.359 26.0667 203.079 27.4C203.506 28.3067 203.786 29.4533 203.919 30.84C204.079 32.2267 204.159 34.5467 204.159 37.8V55.68C204.159 58.2667 204.359 60.0267 204.759 60.96C205.186 61.8933 205.973 62.36 207.119 62.36C208.426 62.36 209.693 61.6133 210.919 60.12L212.359 61.48C211.053 63.3733 209.719 64.7467 208.359 65.6C207.026 66.4267 205.466 66.84 203.679 66.84C201.519 66.84 199.839 66.2533 198.639 65.08C197.439 63.9067 196.639 62.12 196.239 59.72H195.999C194.479 61.9067 192.639 63.64 190.479 64.92C188.319 66.2 186.066 66.84 183.719 66.84ZM187.719 61.76C189.373 61.76 190.919 61.3333 192.359 60.48C193.799 59.6 195.013 58.3867 195.999 56.84V45.56C192.426 46.2533 189.613 47.0133 187.559 47.84C185.533 48.6667 184.093 49.68 183.239 50.88C182.413 52.0533 181.999 53.5333 181.999 55.32C181.999 57.3733 182.479 58.96 183.439 60.08C184.426 61.2 185.853 61.76 187.719 61.76Z" fill="#331D14" style="fill:#331D14;fill:color(display-p3 0.2000 0.1137 0.0784);fill-opacity:1;"/>
<path d="M227.787 66.84C223.787 66.84 220.867 65.92 219.027 64.08C217.187 62.2133 216.267 59.52 216.267 56V27.04L210.347 25.8V24.04H224.427V52.8C224.427 56.2933 225.04 58.6933 226.267 60C227.52 61.3067 229.494 61.96 232.187 61.96C234.027 61.96 235.827 61.48 237.587 60.52C239.347 59.56 240.974 58.0533 242.467 56V59.2C240.44 61.68 238.16 63.5733 235.627 64.88C233.094 66.1867 230.48 66.84 227.787 66.84ZM242.187 66.84V58.96L241.747 58.8V27.04L235.867 25.8V24.04H249.907V59.92L255.347 61.84V62.92L242.867 66.84H242.187Z" fill="#331D14" style="fill:#331D14;fill:color(display-p3 0.2000 0.1137 0.0784);fill-opacity:1;"/>
<path d="M256.284 66V64.24L262.244 63V30.48L256.364 28.28V27.12L269.004 23.24H270.044V30.16L270.444 30.56V63L276.324 64.24V66H256.284ZM281.564 66V64.24L287.484 63.08V38.64C287.484 34.8533 286.884 32.1333 285.684 30.48C284.51 28.8 282.617 27.96 280.004 27.96C277.977 27.96 276.044 28.4667 274.204 29.48C272.39 30.4667 270.804 31.8933 269.444 33.76V30.4C271.684 28.1333 274.15 26.3733 276.844 25.12C279.564 23.8667 282.23 23.24 284.844 23.24C288.497 23.24 291.204 24.2 292.964 26.12C294.724 28.0133 295.604 30.9733 295.604 35V63.08L301.524 64.24V66H281.564ZM306.764 66V64.24L312.644 63.08V38.4C312.644 34.6133 312.07 31.9333 310.924 30.36C309.804 28.76 307.897 27.96 305.204 27.96C303.044 27.96 301.07 28.4667 299.284 29.48C297.524 30.4667 295.977 31.8933 294.644 33.76V30.4C296.697 28.0267 299.11 26.24 301.884 25.04C304.657 23.84 307.457 23.24 310.284 23.24C313.857 23.24 316.47 24.2133 318.124 26.16C319.777 28.1067 320.657 31.1733 320.764 35.36V63.08L326.684 64.24V66H306.764Z" fill="#331D14" style="fill:#331D14;fill:color(display-p3 0.2000 0.1137 0.0784);fill-opacity:1;"/>
<path d="M347.297 66.84C343.43 66.84 340.03 65.96 337.097 64.2C334.19 62.4133 331.924 59.9333 330.297 56.76C328.697 53.56 327.897 49.8667 327.897 45.68C327.897 41.2267 328.79 37.32 330.577 33.96C332.39 30.6 334.91 27.9733 338.137 26.08C341.39 24.1867 345.15 23.24 349.417 23.24C354.697 23.24 358.737 24.7733 361.537 27.84C364.364 30.9067 365.83 35.4 365.937 41.32L365.377 41.8H334.377V39.48L356.777 38.68C356.964 37.9867 357.057 36.9333 357.057 35.52C357.057 29.12 354.244 25.92 348.617 25.92C344.75 25.92 341.764 27.44 339.657 30.48C337.577 33.4933 336.537 37.7733 336.537 43.32C336.537 54.92 341.044 60.72 350.057 60.72C355.924 60.72 360.417 58.5867 363.537 54.32L365.017 55.24C363.63 58.92 361.377 61.7733 358.257 63.8C355.164 65.8267 351.51 66.84 347.297 66.84Z" fill="#331D14" style="fill:#331D14;fill:color(display-p3 0.2000 0.1137 0.0784);fill-opacity:1;"/>
<path d="M74.32 110.2C74.3467 108.573 74.0933 107.04 73.56 105.6C73.0267 104.133 72.2133 102.947 71.12 102.04C70.0267 101.133 68.6533 100.68 67 100.68C64.76 100.68 62.6667 101.36 60.72 102.72C58.7733 104.08 56.9733 106.173 55.32 109C53.6667 111.827 52.1067 115.453 50.64 119.88L41.36 147.92C38.6933 156 35.72 162.733 32.44 168.12C29.16 173.507 25.5867 177.547 21.72 180.24C17.8267 182.933 13.6133 184.28 9.08 184.28C7.24 184.28 5.68 184.013 4.4 183.48C3.09334 182.947 2.10667 182.2 1.44 181.24C0.773335 180.307 0.440002 179.227 0.440002 178C0.440002 176.827 0.773335 175.853 1.44 175.08C2.10667 174.333 3.01334 173.96 4.16 173.96C5.22667 173.96 6.02667 174.213 6.56 174.72C7.09334 175.253 7.49334 175.893 7.76 176.64C8 177.387 8.24 178.133 8.48 178.88C8.69334 179.653 9 180.293 9.4 180.8C9.8 181.333 10.4133 181.6 11.24 181.6C13.2933 181.6 15.5067 180.373 17.88 177.92C20.2533 175.467 22.6133 172.067 24.96 167.72C27.28 163.373 29.4 158.36 31.32 152.68L42.32 119.88C43.92 115.107 45.92 111.12 48.32 107.92C50.72 104.72 53.5067 102.32 56.68 100.72C59.88 99.0933 63.4267 98.28 67.32 98.28C70.3067 98.28 72.8667 98.7867 75 99.8C77.16 100.813 79.0133 102.187 80.56 103.92L74.32 110.2ZM58.44 122.04L57.44 124.6H34.08L35.08 122.04H58.44ZM57.12 164.84C55.8667 164.84 54.88 164.387 54.16 163.48C53.44 162.573 53.08 161.36 53.08 159.84C53.08 159.307 53.1333 158.747 53.24 158.16C53.3733 157.547 53.64 156.64 54.04 155.44C54.4667 154.24 55.12 152.52 56 150.28C56.9067 148.04 58.1333 145.053 59.68 141.32C61.2533 137.587 63.24 132.853 65.64 127.12L74.96 104.84L74.48 101.92L85.4 99.12L85.72 99.44L68.36 139.88C66.36 144.493 64.8267 148.053 63.76 150.56C62.72 153.067 62 154.907 61.6 156.08C61.2 157.227 61 158.107 61 158.72C61 159.12 61.1733 159.453 61.52 159.72C61.8933 159.987 62.2667 160.12 62.64 160.12C63.2533 160.12 64.16 159.747 65.36 159C66.56 158.227 68.44 156.48 71 153.76L72.72 154.76C70.08 157.987 67.3467 160.48 64.52 162.24C61.72 163.973 59.2533 164.84 57.12 164.84Z" fill="#331D14" style="fill:#331D14;fill:color(display-p3 0.2000 0.1137 0.0784);fill-opacity:1;"/>
<path d="M88.4444 164.84C84.6844 164.84 81.791 163.667 79.7644 161.32C77.7377 158.947 76.7244 155.747 76.7244 151.72C76.7244 148.893 77.2577 146.04 78.3244 143.16C79.4177 140.28 80.8977 137.533 82.7644 134.92C84.6577 132.307 86.791 129.973 89.1644 127.92C91.5644 125.867 94.0977 124.24 96.7644 123.04C99.431 121.84 102.071 121.24 104.684 121.24C108.444 121.24 111.351 122.413 113.404 124.76C115.458 127.08 116.484 130.24 116.484 134.24C116.484 137.093 115.938 139.973 114.844 142.88C113.751 145.76 112.258 148.52 110.364 151.16C108.498 153.773 106.364 156.12 103.964 158.2C101.564 160.253 99.031 161.88 96.3644 163.08C93.6977 164.253 91.0577 164.84 88.4444 164.84ZM87.5244 162C89.0977 162 90.8577 161.267 92.8044 159.8C94.751 158.307 96.6977 156.347 98.6444 153.92C100.591 151.493 102.378 148.827 104.004 145.92C105.658 143.013 106.978 140.12 107.964 137.24C108.951 134.36 109.444 131.747 109.444 129.4C109.444 127.64 109.138 126.307 108.524 125.4C107.938 124.467 106.964 124 105.604 124C103.951 124 102.151 124.707 100.204 126.12C98.2577 127.533 96.3244 129.427 94.4044 131.8C92.4844 134.147 90.7377 136.747 89.1644 139.6C87.5911 142.427 86.3244 145.293 85.3644 148.2C84.431 151.107 83.9644 153.8 83.9644 156.28C83.9644 158.147 84.2444 159.573 84.8044 160.56C85.3644 161.52 86.271 162 87.5244 162Z" fill="#331D14" style="fill:#331D14;fill:color(display-p3 0.2000 0.1137 0.0784);fill-opacity:1;"/>
<path d="M113.703 164L128.983 128.68C129.196 128.12 129.396 127.587 129.583 127.08C129.77 126.573 129.863 126.133 129.863 125.76C129.863 125.12 129.503 124.8 128.783 124.8C128.196 124.8 127.436 125.093 126.503 125.68C125.57 126.24 124.556 127.027 123.463 128.04C122.396 129.027 121.33 130.187 120.263 131.52L118.783 130.28C120.89 127.587 123.236 125.413 125.823 123.76C128.41 122.08 130.783 121.24 132.943 121.24C134.036 121.24 134.916 121.587 135.583 122.28C136.276 122.947 136.623 123.947 136.623 125.28C136.623 126.347 136.396 127.48 135.943 128.68C135.49 129.88 134.596 131.587 133.263 133.8L133.623 133.92C136.37 129.44 138.97 126.213 141.423 124.24C143.903 122.24 146.436 121.24 149.023 121.24C150.73 121.24 152.143 121.64 153.263 122.44C154.383 123.24 154.943 124.32 154.943 125.68C154.943 126.747 154.636 127.613 154.023 128.28C153.436 128.92 152.583 129.24 151.463 129.24C150.45 129.24 149.69 129 149.183 128.52C148.676 128.04 148.183 127.573 147.703 127.12C147.223 126.64 146.49 126.4 145.503 126.4C144.383 126.4 143.21 126.867 141.983 127.8C140.783 128.733 139.503 130.133 138.143 132C136.783 133.84 135.316 136.16 133.743 138.96C132.196 141.733 130.53 144.973 128.743 148.68L121.383 164H113.703Z" fill="#331D14" style="fill:#331D14;fill:color(display-p3 0.2000 0.1137 0.0784);fill-opacity:1;"/>
<path d="M153.487 164.84C151.94 164.84 150.687 164.467 149.727 163.72C148.794 162.973 148.327 161.853 148.327 160.36C148.327 159.693 148.407 158.933 148.567 158.08C148.754 157.2 149.074 156.253 149.527 155.24L162.367 127C162.527 126.653 162.634 126.373 162.687 126.16C162.74 125.92 162.767 125.707 162.767 125.52C162.767 125.04 162.434 124.8 161.767 124.8C160.834 124.8 159.727 125.24 158.447 126.12C157.194 127 155.967 128.2 154.767 129.72L152.967 128.32C154.78 126.107 156.86 124.373 159.207 123.12C161.58 121.867 163.82 121.24 165.927 121.24C167.394 121.24 168.607 121.573 169.567 122.24C170.554 122.907 171.047 123.867 171.047 125.12C171.047 125.867 170.94 126.693 170.727 127.6C170.54 128.507 170.234 129.427 169.807 130.36L157.087 157.56C156.98 157.747 156.914 157.933 156.887 158.12C156.86 158.28 156.847 158.44 156.847 158.6C156.847 159.613 157.367 160.12 158.407 160.12C159.154 160.12 160.074 159.707 161.167 158.88C162.26 158.027 164.1 156.32 166.687 153.76L168.327 154.76C165.847 157.88 163.247 160.347 160.527 162.16C157.807 163.947 155.46 164.84 153.487 164.84ZM170.887 112.12C169.367 112.12 168.167 111.72 167.287 110.92C166.407 110.093 165.967 109 165.967 107.64C165.967 106.173 166.554 104.907 167.727 103.84C168.9 102.773 170.234 102.24 171.727 102.24C173.087 102.24 174.274 102.653 175.287 103.48C176.327 104.307 176.847 105.347 176.847 106.6C176.847 107.533 176.554 108.427 175.967 109.28C175.407 110.107 174.674 110.787 173.767 111.32C172.86 111.853 171.9 112.12 170.887 112.12Z" fill="#331D14" style="fill:#331D14;fill:color(display-p3 0.2000 0.1137 0.0784);fill-opacity:1;"/>
<path d="M178.711 164.84C176.125 164.84 173.871 164.493 171.951 163.8C170.031 163.08 168.538 162.133 167.471 160.96C166.405 159.787 165.871 158.48 165.871 157.04C165.871 156.107 166.205 155.307 166.871 154.64C167.538 153.947 168.405 153.6 169.471 153.6C170.858 153.6 171.791 154 172.271 154.8C172.751 155.6 173.151 156.507 173.471 157.52C173.818 158.667 174.325 159.76 174.991 160.8C175.658 161.84 177.045 162.36 179.151 162.36C181.365 162.36 183.138 161.653 184.471 160.24C185.831 158.8 186.511 156.973 186.511 154.76C186.511 153.987 186.365 153.2 186.071 152.4C185.778 151.573 185.298 150.627 184.631 149.56C183.991 148.467 183.098 147.16 181.951 145.64C179.845 142.787 178.351 140.427 177.471 138.56C176.618 136.667 176.191 134.853 176.191 133.12C176.191 130.933 176.845 128.947 178.151 127.16C179.485 125.347 181.258 123.907 183.471 122.84C185.685 121.773 188.138 121.24 190.831 121.24C193.045 121.24 195.071 121.587 196.911 122.28C198.778 122.947 200.258 123.84 201.351 124.96C202.471 126.053 203.031 127.24 203.031 128.52C203.031 129.48 202.685 130.267 201.991 130.88C201.325 131.493 200.471 131.8 199.431 131.8C197.405 131.8 196.231 130.64 195.911 128.32C195.645 126.373 195.218 125.093 194.631 124.48C194.071 123.867 192.965 123.56 191.311 123.56C188.965 123.56 187.191 124.2 185.991 125.48C184.791 126.76 184.191 128.48 184.191 130.64C184.191 132 184.538 133.44 185.231 134.96C185.925 136.453 187.165 138.467 188.951 141C190.898 143.747 192.245 145.973 192.991 147.68C193.765 149.387 194.151 151.053 194.151 152.68C194.151 155.027 193.471 157.12 192.111 158.96C190.751 160.773 188.898 162.213 186.551 163.28C184.231 164.32 181.618 164.84 178.711 164.84Z" fill="#331D14" style="fill:#331D14;fill:color(display-p3 0.2000 0.1137 0.0784);fill-opacity:1;"/>
</svg>
